<?xml version="1.0"?>
<svg id="Layer_1" xmlns="http://www.w3.org/2000/svg" viewBox="0 0 213 38">
  <defs>
    <style>.cls-1{fill:#43a747;}.cls-2{fill:#47db00;}.cls-3{fill:#020b16;}</style>
  </defs>
  <title>1</title>
  <rect class="cls-1" x="3.25" y="14.61" width="15.73" height="15.72" transform="translate(-12.63 14.44) rotate(-45)" />
  <rect class="cls-2" x="19.94" y="1.2" width="15.72" height="31.44" transform="translate(-3.82 24.61) rotate(-45)" />
  <path class="cls-3" d="M61.34,8.25h5.33A2.72,2.72,0,0,0,64,6.08a2.61,2.61,0,0,0-2.61,2.17m8.24,2.13H61.27A2.68,2.68,0,0,0,64.2,12.8a2.71,2.71,0,0,0,2.07-1.32h3.14A5.66,5.66,0,0,1,64,15.59a5.78,5.78,0,0,1-5.71-5.85,1.69,1.69,0,0,1,0-.23,5.71,5.71,0,1,1,11.39,0,7,7,0,0,1-.06.91" />
  <rect class="cls-3" x="70.98" y="0.25" width="2.97" height="15.06" />
  <path class="cls-3" d="M78.36,8.25h5.33A2.73,2.73,0,0,0,81,6.12a2.61,2.61,0,0,0-2.65,2.13m8.24,2.13H78.28a2.72,2.72,0,0,0,5.06,1.14h3.12A5.67,5.67,0,0,1,81,15.63,5.78,5.78,0,0,1,75.3,9.78a1.69,1.69,0,0,1,0-.23,5.71,5.71,0,1,1,11.39,0,7,7,0,0,1-.06.91" />
  <path class="cls-3" d="M94.87,3.72V6.66H93.58c-1.68,0-2.34.78-2.34,2.66v6h-3V3.79h1.91l.56,1.46a3.67,3.67,0,0,1,3.18-1.48Z" />
  <rect class="cls-3" x="96.41" y="3.79" width="2.97" height="11.52" />
  <rect class="cls-3" x="96.42" y="0.33" width="2.96" height="2.15" />
  <polygon class="cls-3" points="108.11 15.31 104.59 9.8 104.59 15.31 101.62 15.31 101.62 0.25 104.59 0.25 104.59 8.91 107.89 3.79 111.31 3.79 107.6 9.27 111.71 15.31 108.11 15.31" />
  <path class="cls-3" d="M52,28h3.74l-1.88-5.34Zm4.71,2.81H51L50,33.6H46.8l5.59-14.93H55.3L61.06,33.6H57.72Z" />
  <path class="cls-3" d="M61.09,27.81a5.82,5.82,0,0,1,5.64-6h.21a5.58,5.58,0,0,1,5.59,4.72h-3a2.82,2.82,0,0,0-2.66-1.79,2.93,2.93,0,0,0-2.83,3s0,.07,0,.11a3,3,0,0,0,2.82,3.17h0a2.83,2.83,0,0,0,2.65-1.93h3A5.67,5.67,0,0,1,66.87,34,5.9,5.9,0,0,1,61,28c0-.06,0-.11,0-.17" />
  <path class="cls-3" d="M82.88,27.83a3,3,0,1,0-3,3,3,3,0,0,0,3-3m2.91-5.76V33.59H83.46l-.25-1A5.25,5.25,0,0,1,79.64,34a5.8,5.8,0,0,1-5.77-5.83,2.44,2.44,0,0,1,0-.27,5.76,5.76,0,0,1,5.46-6.06h.3a5.23,5.23,0,0,1,3.62,1.41l.31-1.1Z" />
  <path class="cls-3" d="M96.57,27.84a3,3,0,0,0-6,0h0a3,3,0,1,0,6,0m2.75-9.17V33.6H97.13l-.35-1a5.08,5.08,0,0,1-3.44,1.31,5.79,5.79,0,0,1-5.79-5.79c0-.11,0-.22,0-.32A5.75,5.75,0,0,1,93,21.73h.35a5.07,5.07,0,0,1,3,1v-4Z" />
  <path class="cls-3" d="M104,26.59h5.33a2.74,2.74,0,0,0-2.72-2.17A2.61,2.61,0,0,0,104,26.59m8.24,2.13h-8.32a2.7,2.7,0,0,0,3,2.39,2.72,2.72,0,0,0,2-1.29h3.12a5.67,5.67,0,0,1-5.45,4.11,5.78,5.78,0,0,1-5.71-5.85,1.93,1.93,0,0,1,0-.24,5.71,5.71,0,1,1,11.39,0,7.11,7.11,0,0,1-.06.92" />
  <path class="cls-3" d="M130.44,26.38V33.6h-3V26.89c0-1.54-.57-2.35-1.65-2.35-1.32,0-2.11,1-2.11,2.83V33.6h-2.9V26.89c0-1.54-.56-2.35-1.62-2.35-1.35,0-2.15,1-2.15,2.83V33.6h-3V22.08h2.08l.55,1.43a4.14,4.14,0,0,1,3.28-1.7,3.52,3.52,0,0,1,3.19,1.84,4.11,4.11,0,0,1,3.4-1.84c2.28,0,3.88,1.87,3.88,4.57" />
  <path class="cls-3" d="M143,22.08l-4.79,11.37c-1.32,3.12-2.48,4.31-4.94,4.31H132V35h1c1.43,0,1.81-.4,2.48-2.15v-.09l-4.65-10.64h3.23L137,29.17l2.74-7.09Z" />
  <polygon class="cls-3" points="59.35 3.28 55.39 3.28 55.39 15.31 52.3 15.31 52.3 3.28 48.34 3.28 48.34 0.28 59.35 0.28 59.35 3.28" />
</svg>